<svg width="1280" height="720" xmlns="http://www.w3.org/2000/svg" xmlns:xlink="http://www.w3.org/1999/xlink" overflow="hidden"><g><rect x="0" y="0" width="1280" height="720" fill="#FFFFFF"/><path d="M258 360C258 176.089 429.027 27 640 27 850.973 27 1022 176.089 1022 360 1022 543.911 850.973 693 640 693 429.027 693 258 543.911 258 360Z" fill="#2F5597" fill-rule="evenodd"/><path d="M429 445C429 328.468 523.468 234 640 234 756.532 234 851 328.468 851 445 851 561.532 756.532 656 640 656 523.468 656 429 561.532 429 445Z" fill="#BBC4E3" fill-rule="evenodd"/><text fill="#FFFFFF" font-family="DengXian,DengXian_MSFontService,sans-serif" font-weight="700" font-size="42.6667" transform="translate(597.333 440)">并行</text><text fill="#FFFFFF" font-family="DengXian,DengXian_MSFontService,sans-serif" font-weight="700" font-size="32" transform="translate(560 481)">（</text><text fill="#15884B" font-family="DengXian,DengXian_MSFontService,sans-serif" font-weight="700" font-size="32" transform="translate(592 481)">多进程</text><text fill="#FFFFFF" font-family="DengXian,DengXian_MSFontService,sans-serif" font-weight="700" font-size="32" transform="translate(688 481)">）</text><text fill="#FFFFFF" font-family="DengXian,DengXian_MSFontService,sans-serif" font-weight="700" font-size="42.6667" transform="translate(597.33 146)">并发</text><text fill="#FFFFFF" font-family="DengXian,DengXian_MSFontService,sans-serif" font-weight="700" font-size="32" transform="translate(498.583 187)">（</text><text fill="#15884B" font-family="DengXian,DengXian_MSFontService,sans-serif" font-weight="700" font-size="32" transform="translate(530.583 187)">多线程</text><text fill="#15884B" font-family="DengXian,DengXian_MSFontService,sans-serif" font-weight="700" font-size="32" transform="translate(626.583 187)">,</text><text fill="#15884B" font-family="DengXian,DengXian_MSFontService,sans-serif" font-weight="700" font-size="32" transform="translate(643.083 187)">异步</text><text fill="#15884B" font-family="DengXian,DengXian_MSFontService,sans-serif" font-weight="700" font-size="32" transform="translate(715.917 187)">IO</text><text fill="#FFFFFF" font-family="DengXian,DengXian_MSFontService,sans-serif" font-weight="700" font-size="32" transform="translate(749.417 187)">）</text></g></svg>